<svg width="1973" height="1973" viewBox="0 0 1973 1973" fill="none" xmlns="http://www.w3.org/2000/svg">
<path d="M452.146 246.625C484.851 246.625 516.216 259.617 539.341 282.742C562.467 305.868 575.459 337.233 575.459 369.938V1603.06C575.459 1635.77 562.467 1667.13 539.341 1690.26C516.216 1713.38 484.851 1726.38 452.146 1726.38H287.729C255.025 1726.38 223.66 1713.38 200.534 1690.26C177.409 1667.13 164.417 1635.77 164.417 1603.06V369.938C164.417 337.233 177.409 305.868 200.534 282.742C223.66 259.617 255.025 246.625 287.729 246.625H452.146ZM945.396 246.625C978.1 246.625 1009.47 259.617 1032.59 282.742C1055.72 305.868 1068.71 337.233 1068.71 369.938V1603.06C1068.71 1635.77 1055.72 1667.13 1032.59 1690.26C1009.47 1713.38 978.1 1726.38 945.396 1726.38H780.979C748.275 1726.38 716.91 1713.38 693.784 1690.26C670.659 1667.13 657.667 1635.77 657.667 1603.06V369.938C657.667 337.233 670.659 305.868 693.784 282.742C716.91 259.617 748.275 246.625 780.979 246.625H945.396ZM1543.95 503.444L1808.17 1532.61C1812.2 1548.3 1813.1 1564.62 1810.82 1580.66C1808.54 1596.69 1803.12 1612.12 1794.87 1626.06C1786.63 1640 1775.72 1652.17 1762.77 1661.9C1749.81 1671.62 1735.07 1678.7 1719.39 1682.72L1565.16 1722.18C1549.48 1726.21 1533.15 1727.11 1517.12 1724.83C1501.09 1722.55 1485.66 1717.13 1471.72 1708.88C1457.78 1700.64 1445.6 1689.73 1435.88 1676.78C1426.15 1663.82 1419.08 1649.08 1415.05 1633.4L1150.83 604.56C1146.81 588.874 1145.91 572.548 1148.19 556.514C1150.47 540.481 1155.89 525.053 1164.13 511.114C1172.38 497.174 1183.29 484.995 1196.24 475.273C1209.19 465.55 1223.93 458.473 1239.62 454.448L1393.84 414.741C1425.52 406.651 1459.11 411.455 1487.25 428.099C1515.39 444.743 1535.79 471.869 1543.95 503.526V503.444Z" fill="white" fill-opacity="0.95"/>
</svg>
